<svg xmlns="http://www.w3.org/2000/svg" xmlns:xlink="http://www.w3.org/1999/xlink" viewBox="0 0 1335.45 315.71"><defs><style>.cls-1{fill:url(#Neues_Verlaufsfeld_5);}.cls-2{fill:url(#Neues_Verlaufsfeld_5-2);}.cls-3{fill:url(#Neues_Verlaufsfeld_5-3);}.cls-4{fill:url(#Neues_Verlaufsfeld_5-4);}.cls-5{fill:url(#Neues_Verlaufsfeld_5-5);}.cls-6{fill:url(#Neues_Verlaufsfeld_5-6);}.cls-7{fill:url(#Neues_Verlaufsfeld_5-7);}.cls-8{fill:url(#Neues_Verlaufsfeld_5-8);}.cls-9{fill:url(#Neues_Verlaufsfeld_5-9);}.cls-10{fill:url(#Neues_Verlaufsfeld_5-10);}.cls-11{fill:url(#Neues_Verlaufsfeld_5-11);}</style><linearGradient id="Neues_Verlaufsfeld_5" x1="-65.9" y1="224.86" x2="1364.55" y2="-99.01" gradientUnits="userSpaceOnUse"><stop offset="0" stop-color="#c0c"/><stop offset="1" stop-color="#ff4ff9"/></linearGradient><linearGradient id="Neues_Verlaufsfeld_5-2" x1="-51.83" y1="287" x2="1378.62" y2="-36.87" xlink:href="#Neues_Verlaufsfeld_5"/><linearGradient id="Neues_Verlaufsfeld_5-3" x1="-50.07" y1="294.77" x2="1380.38" y2="-29.1" xlink:href="#Neues_Verlaufsfeld_5"/><linearGradient id="Neues_Verlaufsfeld_5-4" x1="-48.34" y1="302.43" x2="1382.11" y2="-21.45" xlink:href="#Neues_Verlaufsfeld_5"/><linearGradient id="Neues_Verlaufsfeld_5-5" x1="-43.16" y1="325.28" x2="1387.28" y2="1.41" xlink:href="#Neues_Verlaufsfeld_5"/><linearGradient id="Neues_Verlaufsfeld_5-6" x1="-41.7" y1="331.75" x2="1388.75" y2="7.88" xlink:href="#Neues_Verlaufsfeld_5"/><linearGradient id="Neues_Verlaufsfeld_5-7" x1="-50.26" y1="293.93" x2="1380.18" y2="-29.94" xlink:href="#Neues_Verlaufsfeld_5"/><linearGradient id="Neues_Verlaufsfeld_5-8" x1="-44.88" y1="317.72" x2="1385.57" y2="-6.15" xlink:href="#Neues_Verlaufsfeld_5"/><linearGradient id="Neues_Verlaufsfeld_5-9" x1="-39.42" y1="342.75" x2="1391.03" y2="18.88" xlink:href="#Neues_Verlaufsfeld_5"/><linearGradient id="Neues_Verlaufsfeld_5-10" x1="-31.99" y1="374.63" x2="1398.46" y2="50.76" xlink:href="#Neues_Verlaufsfeld_5"/><linearGradient id="Neues_Verlaufsfeld_5-11" x1="-25.95" y1="401.32" x2="1404.5" y2="77.44" xlink:href="#Neues_Verlaufsfeld_5"/></defs><title>devfest-text</title><g id="Ebene_2" data-name="Ebene 2"><g id="Ebene_1-2" data-name="Ebene 1"><path class="cls-1" d="M304,66.44A46,46,0,0,1,323.37,81.5q7.1,9.75,5.14,24.29a71.91,71.91,0,0,1-7.24,20.28,158.11,158.11,0,0,1-13,20.78,249.67,249.67,0,0,1-16.2,19.72q-8.69,9.51-16.34,17.32a391.32,391.32,0,0,1-62.95,49.45A473.42,473.42,0,0,1,141.1,270.5a421.2,421.2,0,0,1-44.91,15.3q-22.08,6.09-40.42,9.6t-31.26,5q-12.92,1.49-17.23,1.48a10.55,10.55,0,0,1-1.36-.15c-.76-.11-1.59-.25-2.5-.43s-1.7-.36-2.38-.54-1-.43-1-.72.87-.45,3.06-.91l7.25-1.55q4-.85,7.58-1.46c2.42-.41,3.78-.62,4.08-.64q26-5.84,55.12-15.23A575.4,575.4,0,0,0,135,258a521.67,521.67,0,0,0,55.6-29A323,323,0,0,0,239,193.75q12.63-10.91,24.8-22.22t22.54-22.21q10.37-10.9,18.46-21A103.4,103.4,0,0,0,317.2,109.4q4.24-8.75,4.21-15.86a15,15,0,0,0-5.75-11.89q-6.82-5.15-19.09-7.08a164.71,164.71,0,0,0-27.34-1.75A297.8,297.8,0,0,0,237.39,75q-16.77,2-32.4,4.51t-28.88,5.21l-21.63,4.44q-18.79,4-36,8.4T82.7,106l-1,0c-.38,0-.49-.12-.34-.42a5.48,5.48,0,0,1,1.8-1.4Q99.88,97,114.47,91.29t31.34-10.92a428.43,428.43,0,0,1,105.77-20,255.86,255.86,0,0,1,26.53.15A78.68,78.68,0,0,1,304,66.44Zm-225.2,177c-.45-.27-.5-.89-.12-1.86a25.1,25.1,0,0,1,1-2.35q3.58-6.08,6.4-10.49t5.5-8.47q2.7-4.08,5.5-8.15t6.64-9.52q16.19-21.58,32.49-43T170.53,118q6.3-7.32,12.61-14.19a136.46,136.46,0,0,1,14-13.15c.45-.32,1-.78,1.81-1.4a28,28,0,0,1,2.37-1.76,9.62,9.62,0,0,1,2.48-1.21,3.8,3.8,0,0,1,2.38,0,2.36,2.36,0,0,1,.81,2,8.72,8.72,0,0,1-.66,2.56c-.38.89-.79,1.75-1.23,2.57a13.22,13.22,0,0,0-.9,1.91A164.46,164.46,0,0,1,194.3,111q-5.4,7.6-11.92,16.24-16.87,21.18-34.77,41.42t-35.46,40.79q-7.66,8-14.64,16t-14.87,16a10.44,10.44,0,0,1-2,1.63C79.86,243.65,79.26,243.75,78.8,243.48Z"/><path class="cls-2" d="M351.76,196.24c-1.21,1.37-2.59,2.9-4.17,4.58s-3.12,3.25-4.62,4.71-2.4,2.34-2.7,2.65q-9,8.1-18.5,15.89A163.87,163.87,0,0,1,301,238.53a121,121,0,0,1-11.3,6.13A35,35,0,0,1,277.48,248a14.33,14.33,0,0,1-9.66-2.93q-4.21-3.2-3.57-8.92a49.67,49.67,0,0,1,8.25-23A169.1,169.1,0,0,1,288,193.37a113.14,113.14,0,0,1,9-8.64q4.72-4.06,9.92-7.81a87.84,87.84,0,0,1,10.39-6.74,72.45,72.45,0,0,1,11.31-5,22.32,22.32,0,0,1,5.89-1.27,12.15,12.15,0,0,1,5.9.93q5.46,2.8,5,8.19a24.26,24.26,0,0,1-4.24,11.26q-1.8,2.5-3.6,4.78c-1.2,1.51-2.47,3-3.82,4.56a88.14,88.14,0,0,1-18.27,15.33,153.56,153.56,0,0,1-14.47,7.59,135.15,135.15,0,0,1-16.52,6.16A43.79,43.79,0,0,0,277.41,237a42.93,42.93,0,0,0,14.49-3.65,117,117,0,0,0,15.82-8.2q7.9-4.87,15.58-10.17t14-9.54c.3-.16,1.28-.86,2.94-2.11s3.42-2.61,5.3-4.09,4.4-3.31,7.56-5.51C353.41,194,353,194.86,351.76,196.24Zm-56.62,12.13a44.42,44.42,0,0,0-3.48,4.32l-2.81,4.08a73.87,73.87,0,0,0,15-6.52,79,79,0,0,0,13.54-9.74,74.11,74.11,0,0,0,11-12.36,56.92,56.92,0,0,0,7.51-14.6,90.22,90.22,0,0,0-21.67,15.28Q304.59,198.05,295.14,208.37Z"/><path class="cls-3" d="M428.79,149.18c.15.14,0,.65-.56,1.56a65.3,65.3,0,0,1-4.61,6q-3.83,4.68-11.59,13.92t-21.73,25q-10.12,11.45-19.93,21.44T349.75,238c-1.35,1.38-2.67,2.65-3.94,3.8a6.4,6.4,0,0,1-5.1,1.45,8.67,8.67,0,0,1-5.11-2.27,5.68,5.68,0,0,1-2-4.84,20.08,20.08,0,0,1,.87-5.52,52.56,52.56,0,0,1,2.34-6.46q1.45-3.36,2.91-6.49t2.57-5.6q4.49-9.42,9.52-18.75t10.88-18.81c1-1.65,2.14-3.35,3.26-5.08a17.38,17.38,0,0,1,4.17-4.47c.59-.61,1-.78,1.24-.5a2.31,2.31,0,0,1,.35,1.41,11.3,11.3,0,0,1-.21,2.09,9,9,0,0,0-.22,1.54A63.8,63.8,0,0,1,368,180.67q-2.46,6.36-5.36,13.07t-5.7,13.09q-2.81,6.38-4.58,11.28,2.25-2.73,8.56-9.06t14.65-14.28q8.34-8,17.47-16.28t16.91-15.16q7.79-6.83,13-10.81C426.37,149.88,428.33,148.76,428.79,149.18Z"/><path class="cls-4" d="M699.43,38.57c.15,0,.76,0,1.81,0s1.51.19,1.37.48A2.48,2.48,0,0,1,701,40a3.27,3.27,0,0,0-1.59.73q-18.56,5.93-38.14,10.59t-42,9.89c-.91.19-2.16.47-3.74.84s-3.44.82-5.55,1.36-4.38,1.09-6.79,1.64-4.76,1.1-7,1.65q-8.38,1.93-17.89,4.36c-1.49,2.41-3.07,4.79-4.71,7.13s-3.38,4.73-5.17,7.15q-8.77,12.47-18,24.29t-18.68,23.9a2.41,2.41,0,0,1,1-.27,2.41,2.41,0,0,0,1-.27q6.8-1.64,13.7-3.17c4.61-1,9.32-2,14.16-3q6.33-1.4,12.56-2.68t12.8-2l1.48-.07,2.72-.13a12,12,0,0,1,2.49.1c.68.11.95.32.8.62a3,3,0,0,1-1.58,1.39c-.75.33-1.43.65-2,1q-7.24,3-14.6,5.41T561.48,135q-3.86,1.29-10.19,3t-12.67,3.34q-7.47,1.9-15.63,4-2.7,3.19-5.17,5.94-2,2.5-3.83,4.67c-1.2,1.45-2,2.48-2.47,3.08q-9.91,11.87-19.47,23.71t-19.47,23.71q-19.12,23.27-38,46.07T396.06,298.2c-.75.77-1.84,2-3.27,3.77s-3,3.58-4.72,5.49-3.42,3.63-5.07,5.17a17.75,17.75,0,0,1-4.07,3q-.45.24-.12-.87c.23-.74.53-1.6.89-2.56s.79-1.9,1.23-2.8l.9-1.79q9.21-15.56,19.54-30.18t21.13-29.16q18.22-24.52,36.66-48.41t37.57-48l-21.74,5q-10.86,2.49-21.74,4.1c-.31,0-.87.08-1.7.2s-1.67.18-2.49.22a9,9,0,0,1-2.16-.11c-.61-.12-.68-.33-.23-.65a23.73,23.73,0,0,1,5.19-3.31,75.46,75.46,0,0,1,7.47-3.21q4.07-1.5,8-2.79c2.64-.86,4.94-1.55,6.9-2.09q6.57-2.05,13.36-4t13.58-3.83a4.46,4.46,0,0,1,1.24-.38,9.14,9.14,0,0,0,1.48-.4c.6-.18,1.13-.35,1.58-.52q1.58-1.83,4.05-4.57,2-2.5,5.07-6.16t7.31-8.89q9.45-11.62,19-23t19.7-22.62q-27.18,5.89-54.13,11.35t-54.37,9q-6.57,1-13,1.61a87.18,87.18,0,0,1-13,.29c-.76-.11-1.63-.21-2.61-.31a4.06,4.06,0,0,1-2.39-1c-.46-.56-.23-1.12.67-1.68s1.5-.91,1.81-1.07a36,36,0,0,1,5.31-2.23q3.06-1,5.77-1.81,14-4.38,28.08-7.58T491,75.05q21.06-4.5,42-8.58t42-7.71a14.16,14.16,0,0,0,2.6-2.09l3.49-3.35q1.8-1.73,3.72-3.24a8.45,8.45,0,0,1,3.5-1.81q1.14-.27,1.14.93a10,10,0,0,1-.43,2.76A20.87,20.87,0,0,1,588,55a9,9,0,0,1-.89,1.68Q602,54,616.85,51.4t29.79-5q12.92-2.15,26.28-4.43T699.43,38.57Z"/><path class="cls-5" d="M584.4,183.8c-1.2,1.38-2.59,2.9-4.16,4.58s-3.12,3.26-4.62,4.72-2.41,2.34-2.71,2.64q-9,8.1-18.49,15.89a163.61,163.61,0,0,1-20.77,14.47,123.62,123.62,0,0,1-11.3,6.13,35.14,35.14,0,0,1-12.23,3.32,14.38,14.38,0,0,1-9.66-2.93c-2.8-2.13-4-5.1-3.57-8.92a49.86,49.86,0,0,1,8.25-23,170.17,170.17,0,0,1,15.52-19.8,111.4,111.4,0,0,1,9-8.64c3.16-2.71,6.46-5.31,9.93-7.82A88.29,88.29,0,0,1,550,157.74a72.82,72.82,0,0,1,11.3-5,22.32,22.32,0,0,1,5.89-1.27,12.13,12.13,0,0,1,5.9.93q5.46,2.81,5,8.19a24.38,24.38,0,0,1-4.23,11.26c-1.21,1.67-2.4,3.26-3.6,4.77s-2.48,3-3.83,4.57a87.62,87.62,0,0,1-18.27,15.33,151.15,151.15,0,0,1-14.47,7.59,136.63,136.63,0,0,1-16.51,6.16,43.71,43.71,0,0,0-7.17,14.36A43.17,43.17,0,0,0,524.54,221a116.41,116.41,0,0,0,15.82-8.2q7.9-4.87,15.59-10.17T570,193c.3-.16,1.27-.86,2.93-2.11s3.42-2.61,5.31-4.09,4.4-3.31,7.56-5.51C586.05,181.61,585.6,182.43,584.4,183.8Zm-56.61,12.13a43.21,43.21,0,0,0-3.49,4.33c-.83,1.21-1.76,2.57-2.81,4.08a73.13,73.13,0,0,0,15-6.53,78.05,78.05,0,0,0,13.54-9.73,74.57,74.57,0,0,0,11-12.36,57,57,0,0,0,7.5-14.6,90.41,90.41,0,0,0-21.67,15.28Q537.25,185.63,527.79,195.93Z"/><path class="cls-6" d="M627.28,151.08a7.38,7.38,0,0,1-.88,4.43,17.34,17.34,0,0,1-2.81,3.75c-1.12,1.15-2.33,2.26-3.61,3.35a13,13,0,0,0-3,3.65,56.79,56.79,0,0,0-3.92,8.07q-1.68,4.24-3,8.47-1.34,4.65-2.55,9c-.82,2.89-1.59,5.81-2.33,8.76a51.9,51.9,0,0,1-6.93,14.79,34.82,34.82,0,0,1-12,11.09,33.57,33.57,0,0,1-17,4.31,19.43,19.43,0,0,1-7.5-2.05,4.48,4.48,0,0,1-1.36-.59c-.76-.4-1.56-.8-2.39-1.2a8.06,8.06,0,0,1-2-1.32c-.53-.49-.72-.88-.58-1.18s1-.23,2.5.21a14.3,14.3,0,0,0,2.72.64,23,23,0,0,0,6.58.56,22.08,22.08,0,0,0,11.54-4.72,34.86,34.86,0,0,0,7.77-8.47,24,24,0,0,0,4.13-10.28q.87-5.07,1.64-10.48t1.4-11.13a146,146,0,0,1-14,11.4q-8.36,6.1-16.37,11.19t-13.89,8.33q-5.88,3.24-6.56,2.62-.47-.65,6-5.65t15.57-12.36q9.14-7.33,18.72-16.12A105.77,105.77,0,0,0,598.56,163c1.34-2.1,2.69-4.18,4-6.21s2.84-4.12,4.5-6.24a29.64,29.64,0,0,1,5.52-4.43A13.79,13.79,0,0,1,619.3,144a7.28,7.28,0,0,1,5.46,1.93A7.57,7.57,0,0,1,627.28,151.08Z"/><path class="cls-7" d="M848.07,65.6q8.83-1.08,8.84-.42.23.21-8.6,2.38-4.08,1.06-10.08,2.34t-13.47,2.95q-19.93,4-38.62,7.87t-39.75,7.93q-10.41,2-20.27,3.82T707,95.79q-6.74,10.18-12,17.88t-7.08,10.2q-8.31,11.79-16.75,23.25t-17,23q-7.2,9.54-14.17,19T626.28,208.3q7.89-5.85,16-11.39t16.48-11c1.21-.79,2.41-1.51,3.62-2.15l3.61-1.92q2-1,2-.54c0,.44-.86,1.47-2.59,3.08s-3.72,3.35-6,5.22-4.44,3.6-6.55,5.24-3.53,2.76-4.28,3.38L636.93,208q-5.86,4.88-11.72,10.2c-1.51,1.24-3,2.55-4.4,3.93s-2.9,2.77-4.4,4.16a23.38,23.38,0,0,1-3.83,2.81,6,6,0,0,1-4.76.45q-3.18-.94-4-3.1a7.89,7.89,0,0,1-.14-4.81,21.19,21.19,0,0,1,2.12-5.25c1-1.72,1.83-3.19,2.58-4.39q2.24-3.84,4.49-7.23t4.71-7q8.53-12.9,17.42-25.15t17.65-24.94q2.46-3.41,6.63-9.08l9-12.26q4.83-6.59,10.23-13.74t10.35-13.75q-5.22.69-11.33,1.64t-12.23,1.68q-6.12.73-11.79,1.33t-10,.81c-6,.29-9.07-.08-9.08-1.1-.15-.43.52-1,2-1.63s3.62-1.41,6.34-2.28a184.23,184.23,0,0,1,26-6.28q14.26-2.43,28.31-5.52,4.05-5.23,6.75-8.86c1.79-2.43,2.92-3.87,3.37-4.33Q716.08,63.16,725,52a250.33,250.33,0,0,1,19-21.28c.15-.15.56-.54,1.24-1.16a12.77,12.77,0,0,1,2-1.52,2.09,2.09,0,0,1,1.59-.4c.37.13.34.71-.11,1.76a121.52,121.52,0,0,1-6.38,12.35q-3.48,5.86-7.63,12.3t-9.1,13.8q-4.95,7.35-11,16.63,7.25-1.23,15-2.36t15.64-2.4q21.06-3,39.87-5.74t39-5.48q7.69-1,13.71-1.75C841.76,66.27,845.2,65.88,848.07,65.6Z"/><path class="cls-8" d="M886,40.78a18,18,0,0,1-2.32,10.63q-2.81,5-6,9.48a240,240,0,0,1-18.91,22.48q-10.12,10.68-20.73,21-10.82,11-21.74,21.52t-22.44,21.12q-21.42,19.86-43.18,39.19T706.42,224.4l9.51-3.09q4.76-1.55,9.51-2.86,14.94-4.22,29.77-7.89T785,203.33q13.82-3.08,27.74-6.48t28.88-5.65c.9-.19,1.88-.38,2.94-.58a6.62,6.62,0,0,1,3,.08c.91.25.91.69,0,1.31s-1.51,1-1.81,1.18a69,69,0,0,1-7.46,3.43c-2.57,1-5.39,2-8.49,3.14s-6.56,2.25-10.4,3.46-8.19,2.65-13,4.34q-14.7,5.1-29.19,9.73t-29.42,9.07q-14.94,4.44-29.43,8-2.71.57-8.27,1.93t-11.54,2.53A80.73,80.73,0,0,1,687,240.22c-3.63.17-6.27-.21-7.94-1.15-.76-.4-1.1-.83-1-1.27a3.23,3.23,0,0,1,.78-1.46,6.6,6.6,0,0,1,1.7-1.4c.67-.39,1.17-.67,1.47-.83a58.78,58.78,0,0,1,5.76-2.91l5.09-2.21q1.57-1.4,3.38-2.79l2.93-2.55c1.06-.93,2-1.77,2.71-2.54q20.05-20.46,40.22-40.26t40.46-40q10.82-10.81,21.52-21.62t21.29-22.05q10.82-11,20.95-22.68c1.35-1.53,3.22-3.63,5.63-6.3s4.84-5.52,7.31-8.56a110.64,110.64,0,0,0,6.63-9,24,24,0,0,0,3.59-7.29q.43-2.2-2.85-2.82a32.79,32.79,0,0,0-7.49-.41,63,63,0,0,0-8.27.94q-4.08.75-5.44,1a138.86,138.86,0,0,0-27.94,10.1A208.47,208.47,0,0,0,791.84,67a160.78,160.78,0,0,0-18.4,13.58Q764.75,88,755.73,95.43a5.13,5.13,0,0,1-1.13.93,1.37,1.37,0,0,1-.67.47c-.16,0-.16-.14,0-.44a34.89,34.89,0,0,1,5.83-10.13,145.41,145.41,0,0,1,9.57-11q5.29-5.5,10.71-10.47t9.47-8.45A181.62,181.62,0,0,1,813,40a128.91,128.91,0,0,1,26.23-11.66,111.31,111.31,0,0,1,14-3.3,53.89,53.89,0,0,1,14.51-.48,26.37,26.37,0,0,1,12.39,5A14.61,14.61,0,0,1,886,40.78Z"/><path class="cls-9" d="M911.06,95c-.3-.13-.31-.57,0-1.31a11,11,0,0,1,1.24-2.25c.52-.76,1-1.48,1.57-2.16s.86-1.1,1-1.25a272.82,272.82,0,0,1,33.45-36.87,223.69,223.69,0,0,1,38.93-28.81q5.43-3.11,11.87-6a74,74,0,0,1,13.12-4.57,45.47,45.47,0,0,1,13.26-1.29,27.35,27.35,0,0,1,12.5,3.78,22.12,22.12,0,0,1,7.53,7.19,30.54,30.54,0,0,1,3.91,9.34,39,39,0,0,1,1,10.36,60,60,0,0,1-1.29,10.47A197.24,197.24,0,0,1,1028,106a309.2,309.2,0,0,1-34,48.51q-9.91,11.43-20.73,21.8a293,293,0,0,1-22.78,19.71,218.32,218.32,0,0,1-24.61,16.4,100.28,100.28,0,0,1-27.37,10.84,60.57,60.57,0,0,1-12,1.12,39.63,39.63,0,0,1-11-1.55,27.81,27.81,0,0,1-9.33-4.81,25.21,25.21,0,0,1-7-8.87,40.56,40.56,0,0,1-4-13.49,75.24,75.24,0,0,1-.32-14.33A91.29,91.29,0,0,1,857,167q1.65-7.09,3.65-13.54a214.64,214.64,0,0,1,10.26-27.22,255.76,255.76,0,0,1,13.67-25.84A270.22,270.22,0,0,1,900.18,76.9a209.45,209.45,0,0,1,37.28-38.58,99.58,99.58,0,0,1,21.46-13.08,2.79,2.79,0,0,1,.91-.48c.45-.16.75-.11.91.18s.26.57-.11.88-.64.54-.79.69q-3.17,3.22-6.31,5.89t-6.32,5.67A211.83,211.83,0,0,0,919,69.32a324.09,324.09,0,0,0-22.12,34.47q-2.91,5.17-7.17,13.7t-8.73,18.93q-4.47,10.4-8.25,21.64a140.35,140.35,0,0,0-5.53,21.62,66.33,66.33,0,0,0-.68,19.09q1.08,8.72,6.32,13.72a15.88,15.88,0,0,0,11,4.83,33.92,33.92,0,0,0,14-2.86,92.83,92.83,0,0,0,15.93-8.65,202.06,202.06,0,0,0,16.7-12.41q8.34-6.85,16.24-14.25t14.42-14.05q6.54-6.66,11.38-12c3.23-3.59,5.66-6.3,7.32-8.13a294.51,294.51,0,0,0,18.45-23.11A263.73,263.73,0,0,0,1014,97.08q2-3.39,5.27-9.13T1026,75.48q3.48-6.75,6.72-14A109.38,109.38,0,0,0,1038,47.3a61.72,61.72,0,0,0,2.41-12.6,16.3,16.3,0,0,0-1.64-9.34,11.59,11.59,0,0,0-9.45-5.57,37.79,37.79,0,0,0-14,2,94.66,94.66,0,0,0-16.28,7q-8.47,4.57-16,9.53T969.5,47.52c-3.92,2.81-6.7,4.85-8.36,6.09q-7.44,5.84-14.55,11.87T932.27,77.56q-.67.69-3.83,3.58t-6.88,6.13q-3.72,3.24-6.88,5.7T911.06,95Z"/><path class="cls-10" d="M1187.65,12.32c1.37,1.83,1.69,3.57.94,5.21a29.28,29.28,0,0,1-2.92,5q-5.84,8.39-11.91,16.67t-12.37,16.91l-16.52,23q-8.2,11.46-16.75,23-16.86,23.37-33.72,46.3T1060,194.1q13.58-3.72,26.71-7.08t26.72-6.43c4.22-.93,8.38-1.86,12.45-2.79s8.23-1.78,12.46-2.57c2-.38,3.85-.73,5.66-1a46.23,46.23,0,0,1,5.67-.6l1.13-.06a13.82,13.82,0,0,1,1.82,0,3.69,3.69,0,0,1,1.47.36c.38.2.35.53-.1,1a9.3,9.3,0,0,1-4,2.93q-2.61,1.11-4.87,2.1-8.6,3.48-17.08,6.51t-17.53,6.1q-13.82,4.59-27.5,8.65T1055.32,209q-2,.54-4,1c-1.29.28-2.53.59-3.74.94a2.48,2.48,0,0,0-1.58.95,65.11,65.11,0,0,0-4.62,5.26,38.34,38.34,0,0,1-5.06,5.28,4,4,0,0,1-1.36.83c-.6.25-.76-.07-.46-1a13.77,13.77,0,0,1,1.79-4.68c.89-1.51,1.71-2.93,2.46-4.28q-10.86,2.7-21.51,5.08T995.77,223q-6.57,1.2-13,2.27c-4.3.72-8.64,1.32-13,1.83q-1.58.07-4.08.3c-1.66.15-3.28.23-4.87.24s-3,0-4.19-.13-1.82-.35-1.82-.79,0-.59.44-.9.83-.55,1.13-.71a33.32,33.32,0,0,1,6-2.7l6-2q8.84-2.84,18-5.58t19.58-5.64q10.41-2.91,20.93-5.93t21.62-6l6.74-10.83q7.18-11.52,14.71-22.83T1085.05,141q17.31-25.37,37-52l37.89-51.43q-14,8.11-30.51,17.34t-31.19,16.06q-5.88,2.7-13.34,5.79t-21.27,8.36c-1.06.34-2.26.73-3.62,1.15a7.69,7.69,0,0,1-3.85.3c-.31-.13-.27-.39.11-.77s.78-.77,1.24-1.16a19.56,19.56,0,0,1,2.25-1.53c.91-.48,1.89-1,2.94-1.67s2.71-1.63,5-3,5.35-3.14,9.27-5.37,9.18-5.19,15.81-8.86q12.21-6.95,24.18-14t24.17-14.62q6.33-4,12.43-7.94t12.19-8.14c2.11-1.41,4.21-2.86,6.32-4.35s4.29-3,6.55-4.37a6.81,6.81,0,0,1,4.87-1A6.38,6.38,0,0,1,1187.65,12.32Z"/><path class="cls-11" d="M1335,11.61a23,23,0,0,1-.28,9.87,51.73,51.73,0,0,1-3.78,10.7,102.66,102.66,0,0,1-5.72,10.35,96,96,0,0,1-6.07,8.61,143.49,143.49,0,0,1-18.36,19.93,135.15,135.15,0,0,1-22,16.17,36,36,0,0,1,9.3.32,22.93,22.93,0,0,1,8.18,3,18.31,18.31,0,0,1,5.93,5.85,19.75,19.75,0,0,1,2.78,8.84,41.79,41.79,0,0,1-2.62,16.89,99.21,99.21,0,0,1-7.61,16.24A193.58,193.58,0,0,1,1257.66,184a199.83,199.83,0,0,1-50.13,33.5,111,111,0,0,1-10.63,4.23,84.56,84.56,0,0,1-12.11,3.21,61,61,0,0,1-12.58,1,34,34,0,0,1-11.81-2.28q-7.28-2.72-10.37-8.26a26.26,26.26,0,0,1-3.25-12.33,51.29,51.29,0,0,1,1.62-13.77,90.18,90.18,0,0,1,4.22-12.8A139.68,139.68,0,0,1,1167,151.08a214.07,214.07,0,0,1,18.68-22.79,191,191,0,0,1,20.4-18.83,106.93,106.93,0,0,1,23.83-14.4A42,42,0,0,1,1235.1,93a49.64,49.64,0,0,1,5.43-1.46c1.36-.21,2.11-.18,2.27.11a1.27,1.27,0,0,1-.56.9,6.61,6.61,0,0,1-1,.71L1237.16,96q-5.65,3.78-10.73,7.52t-10.27,8.16a206.31,206.31,0,0,0-20.5,20.8,216.56,216.56,0,0,0-17.32,23.29l-4.14,7.42q-3,5.4-6.28,12.24T1162,189.65a62.46,62.46,0,0,0-3.43,13.64q-.75,6.27,1.09,10.35t8,4.22a35.66,35.66,0,0,0,14.62-2.23,107.9,107.9,0,0,0,16.5-7.48,165.55,165.55,0,0,0,17.06-10.89q8.57-6.21,16.36-12.72t14.54-12.85q6.77-6.34,11.5-11.4,3.6-3.66,9.68-10.86t11.92-15.36a129.61,129.61,0,0,0,10-16.25q4.14-8.08,4.11-13.56t-5.83-7.06q-5.79-1.58-19.82,2.81-5.89,2-12.44,5t-13.12,6.22q-6.56,3.27-12.77,6.85t-11.4,6.68c-2,1.12-3.85,2.23-5.65,3.34s-3.7,2.22-5.65,3.33l-3.16,1.91a14.51,14.51,0,0,1-3.4,1.47c-1.2.5-1.58.34-1.13-.49a8.58,8.58,0,0,1,1.34-1.93c1.2-1.37,2.48-2.7,3.83-4s2.78-2.58,4.29-3.82a229.29,229.29,0,0,1,22.23-17.17,153.62,153.62,0,0,1,24.52-13.55,17.26,17.26,0,0,1-11.37-4.6,17.8,17.8,0,0,1-5.51-10.8,31.24,31.24,0,0,1,1.83-15,89.2,89.2,0,0,1,6.6-14.11A122.41,122.41,0,0,1,1270,23.05,112.15,112.15,0,0,1,1300.3,4.29,47.87,47.87,0,0,1,1313.88.36a22.05,22.05,0,0,1,12.94,1.57A13.94,13.94,0,0,1,1335,11.61Zm-26.12,28.85q2-3.37,4.49-7.55a85.41,85.41,0,0,0,4.37-8.42,34.61,34.61,0,0,0,2.55-7.9,7.83,7.83,0,0,0-.83-5.88q-1.49-2.22-5.79-2.46t-12.46,2.57a67.38,67.38,0,0,0-22,13.1,92.89,92.89,0,0,0-17.44,21.65,48.51,48.51,0,0,0-2.91,5.94q-1.78,4.14-3.57,9.15a78.71,78.71,0,0,0-2.88,10.22,24.46,24.46,0,0,0-.51,8.89,6.75,6.75,0,0,0,3.32,5.21q2.73,1.51,8.61-.74a50.93,50.93,0,0,0,13.22-7.43,109.06,109.06,0,0,0,12.4-11.1,138.86,138.86,0,0,0,10.92-12.79Q1305.33,46.32,1308.92,40.46Z"/></g></g></svg>