<?xml version="1.0" encoding="utf-8"?>
<!-- Generator: Adobe Illustrator 23.0.4, SVG Export Plug-In . SVG Version: 6.00 Build 0)  -->
<svg version="1.1" id="Ebene_1" xmlns="http://www.w3.org/2000/svg" xmlns:xlink="http://www.w3.org/1999/xlink" x="0px" y="0px"
	 viewBox="0 0 308 68.6" style="enable-background:new 0 0 308 68.6;" xml:space="preserve">
<style type="text/css">
	.st0{enable-background:new    ;}
	.st1{fill:#FABB05;}
</style>
<title>devfest-text</title>
<g>
	<g class="st0">
		<path class="st1" d="M4.3,66.2V31h10.8c3.1,0,5.9,0.7,8.3,2.1c2.4,1.4,4.3,3.4,5.7,5.9c1.4,2.6,2.1,5.5,2.1,8.7v1.6
			c0,3.3-0.7,6.2-2,8.7s-3.2,4.5-5.7,5.9c-2.4,1.4-5.2,2.1-8.3,2.1H4.3V66.2z M11.5,36.8v23.5H15c2.8,0,5-0.9,6.5-2.8
			c1.5-1.8,2.3-4.5,2.3-7.9v-1.9c0-3.6-0.7-6.3-2.2-8.1c-1.5-1.8-3.6-2.8-6.5-2.8C15.1,36.8,11.5,36.8,11.5,36.8z"/>
	</g>
	<g class="st0">
		<path class="st1" d="M47.8,66.7c-3.8,0-6.9-1.2-9.4-3.5c-2.4-2.3-3.6-5.5-3.6-9.4V53c0-2.6,0.5-5,1.5-7c1-2.1,2.4-3.7,4.3-4.8
			c1.9-1.1,4-1.7,6.4-1.7c3.6,0,6.4,1.1,8.4,3.4c2.1,2.3,3.1,5.4,3.1,9.6v2.8H41.9c0.2,1.7,0.9,3.1,2,4.1s2.6,1.5,4.3,1.5
			c2.7,0,4.8-1,6.3-2.9l3.4,3.8c-1,1.5-2.5,2.6-4.2,3.5C51.9,66.2,50,66.7,47.8,66.7z M47,45.2c-1.4,0-2.5,0.5-3.4,1.4
			c-0.9,0.9-1.4,2.3-1.7,4h9.7V50c0-1.6-0.5-2.8-1.3-3.6C49.6,45.5,48.5,45.2,47,45.2z"/>
	</g>
	<g class="st0">
		<path class="st1" d="M72.1,57.7L77,40h7.3l-8.8,26.1h-6.7L60,40h7.3L72.1,57.7z"/>
	</g>
	<g class="st0">
		<path class="st1" d="M109.5,51.8H95.6v14.4h-7.2V31h22.9v5.9H95.6V46h13.9V51.8z"/>
	</g>
	<g class="st0">
		<path class="st1" d="M126.4,66.7c-3.8,0-6.9-1.2-9.4-3.5c-2.4-2.3-3.6-5.5-3.6-9.4V53c0-2.6,0.5-5,1.5-7c1-2.1,2.4-3.7,4.3-4.8
			s4-1.7,6.4-1.7c3.6,0,6.4,1.1,8.4,3.4c2.1,2.3,3.1,5.4,3.1,9.6v2.8h-16.6c0.2,1.7,0.9,3.1,2,4.1s2.6,1.5,4.3,1.5
			c2.7,0,4.8-1,6.3-2.9l3.4,3.8c-1,1.5-2.5,2.6-4.2,3.5C130.6,66.2,128.6,66.7,126.4,66.7z M125.6,45.2c-1.4,0-2.5,0.5-3.4,1.4
			c-0.9,0.9-1.4,2.3-1.7,4h9.7V50c0-1.6-0.5-2.8-1.3-3.6C128.3,45.5,127.1,45.2,125.6,45.2z"/>
		<path class="st1" d="M155.3,59c0-0.9-0.4-1.5-1.3-2c-0.8-0.5-2.2-0.9-4.1-1.3c-6.2-1.3-9.3-3.9-9.3-7.9c0-2.3,1-4.3,2.9-5.8
			c1.9-1.6,4.4-2.3,7.5-2.3c3.3,0,6,0.8,8,2.3c2,1.6,3,3.6,3,6.1h-7c0-1-0.3-1.8-1-2.5c-0.6-0.7-1.6-1-3-1c-1.2,0-2.1,0.3-2.7,0.8
			c-0.6,0.5-1,1.2-1,2s0.4,1.4,1.1,1.9c0.7,0.5,2,0.9,3.7,1.2s3.2,0.7,4.4,1.2c3.7,1.4,5.5,3.7,5.5,7c0,2.4-1,4.3-3.1,5.8
			c-2,1.5-4.7,2.2-7.9,2.2c-2.2,0-4.1-0.4-5.8-1.2c-1.7-0.8-3-1.9-4-3.2s-1.4-2.8-1.4-4.4h6.6c0.1,1.2,0.5,2.2,1.4,2.8
			c0.9,0.7,2,1,3.4,1c1.3,0,2.3-0.3,3-0.8C154.9,60.5,155.3,59.8,155.3,59z"/>
		<path class="st1" d="M174.9,33.7V40h4.5v5.1h-4.5v13c0,1,0.2,1.7,0.6,2.1c0.4,0.4,1.1,0.6,2.1,0.6c0.8,0,1.5-0.1,2.1-0.2v5.3
			c-1.4,0.4-2.8,0.6-4.2,0.6c-4.9,0-7.4-2.5-7.5-7.4v-14h-3.8V40h3.8v-6.4H174.9z"/>
		<path class="st1" d="M219.4,66.2h-24.1v-4.8l11.3-12.1c1.6-1.7,2.7-3.2,3.5-4.5c0.7-1.3,1.1-2.5,1.1-3.6c0-1.6-0.4-2.8-1.2-3.7
			c-0.8-0.9-1.9-1.3-3.4-1.3c-1.6,0-2.8,0.5-3.7,1.6s-1.4,2.5-1.4,4.3h-7c0-2.1,0.5-4.1,1.5-5.9c1-1.8,2.5-3.2,4.3-4.2
			c1.9-1,4-1.5,6.3-1.5c3.6,0,6.4,0.9,8.4,2.6c2,1.7,3,4.2,3,7.4c0,1.7-0.4,3.5-1.4,5.3c-0.9,1.8-2.4,3.9-4.6,6.3l-8,8.4h15.1v5.7
			H219.4z"/>
		<path class="st1" d="M247.3,51.7c0,4.9-1,8.6-3,11.2s-5,3.9-8.8,3.9s-6.8-1.3-8.8-3.8s-3.1-6.1-3.1-10.9v-6.5
			c0-4.9,1-8.6,3.1-11.2c2-2.5,5-3.8,8.8-3.8s6.8,1.3,8.8,3.8s3.1,6.1,3.1,10.8v6.5H247.3z M240.3,44.5c0-2.9-0.4-5-1.2-6.4
			c-0.8-1.3-2-2-3.7-2c-1.6,0-2.9,0.6-3.6,1.9c-0.8,1.3-1.2,3.2-1.2,5.9v8.6c0,2.9,0.4,5,1.2,6.4s2,2.1,3.8,2.1c1.7,0,2.9-0.7,3.7-2
			s1.2-3.4,1.2-6.1v-8.4H240.3z"/>
		<path class="st1" d="M268.9,66.2h-7V39.2l-8.3,2.6v-5.7l14.6-5.2h0.7V66.2z"/>
		<path class="st1" d="M296.7,52c-1.8,1.8-3.9,2.7-6.4,2.7c-3.1,0-5.6-1.1-7.5-3.2c-1.9-2.1-2.8-5-2.8-8.6c0-2.3,0.5-4.4,1.5-6.3
			c1-1.9,2.4-3.4,4.2-4.5c1.8-1.1,3.8-1.6,6.1-1.6c2.3,0,4.4,0.6,6.2,1.7c1.8,1.1,3.2,2.8,4.2,5c1,2.2,1.5,4.7,1.5,7.5v2.5
			c0,5.9-1.5,10.5-4.4,13.8s-7,5.1-12.4,5.4h-1.7v-5.8h1.5C292.9,60.3,296.2,57.5,296.7,52z M292,49.5c1.1,0,2.1-0.3,2.9-0.9
			c0.8-0.6,1.4-1.3,1.8-2.1v-2.9c0-2.4-0.5-4.2-1.4-5.5c-0.9-1.3-2.1-2-3.6-2c-1.4,0-2.6,0.6-3.5,1.9s-1.4,2.9-1.4,4.8
			s0.4,3.5,1.3,4.7C289.2,48.8,290.4,49.5,292,49.5z"/>
	</g>
</g>
</svg>
